HIERARCHY
ROOT Hips
{
	OFFSET 0.0000 0.0000 0.0000
	CHANNELS 6 Xposition Yposition Zposition Zrotation Xrotation Yrotation
	JOINT RightUpperLeg
	{
		OFFSET 8.0000 0.0000 0.0000
		CHANNELS 3 Zrotation Xrotation Yrotation
		JOINT RightLowerLeg
		{
			OFFSET 0.0000 -42.0000 0.0000
			CHANNELS 3 Zrotation Xrotation Yrotation
			JOINT RightFoot
			{
				OFFSET 0.0000 -42.0000 0.0000
				CHANNELS 3 Zrotation Xrotation Yrotation
				JOINT RightToe
				{
					OFFSET 0.0000 -8.0000 10.0000
					CHANNELS 3 Zrotation Xrotation Yrotation
					End Site
					{
						OFFSET 0.0000 5.0000 0.0000
					}
				}
			}
		}
	}
	JOINT LeftUpperLeg
	{
		OFFSET -8.0000 0.0000 0.0000
		CHANNELS 3 Zrotation Xrotation Yrotation
		JOINT LeftLowerLeg
		{
			OFFSET 0.0000 -42.0000 0.0000
			CHANNELS 3 Zrotation Xrotation Yrotation
			JOINT LeftFoot
			{
				OFFSET 0.0000 -42.0000 0.0000
				CHANNELS 3 Zrotation Xrotation Yrotation
				JOINT LeftToe
				{
					OFFSET 0.0000 -8.0000 10.0000
					CHANNELS 3 Zrotation Xrotation Yrotation
					End Site
					{
						OFFSET 0.0000 5.0000 0.0000
					}
				}
			}
		}
	}
	JOINT Spine
	{
		OFFSET 0.0000 8.0000 0.0000
		CHANNELS 3 Zrotation Xrotation Yrotation
		JOINT Spine1
		{
			OFFSET 0.0000 9.0000 0.0000
			CHANNELS 3 Zrotation Xrotation Yrotation
			JOINT Spine2
			{
				OFFSET 0.0000 9.0000 0.0000
				CHANNELS 3 Zrotation Xrotation Yrotation
				JOINT Neck
				{
					OFFSET 0.0000 20.0000 0.0000
					CHANNELS 3 Zrotation Xrotation Yrotation
					JOINT Head
					{
						OFFSET 0.0000 10.0000 0.0000
						CHANNELS 3 Zrotation Xrotation Yrotation
						End Site
						{
							OFFSET 0.0000 5.0000 0.0000
						}
					}
				}
				JOINT RightShoulder
				{
					OFFSET 5.0000 18.0000 0.0000
					CHANNELS 3 Zrotation Xrotation Yrotation
					JOINT RightUpperArm
					{
						OFFSET 15.0000 0.0000 0.0000
						CHANNELS 3 Zrotation Xrotation Yrotation
						JOINT RightLowerArm
						{
							OFFSET 28.0000 0.0000 0.0000
							CHANNELS 3 Zrotation Xrotation Yrotation
							JOINT RightHand
							{
								OFFSET 25.0000 0.0000 0.0000
								CHANNELS 3 Zrotation Xrotation Yrotation
								End Site
								{
									OFFSET 0.0000 5.0000 0.0000
								}
							}
						}
					}
				}
				JOINT LeftShoulder
				{
					OFFSET -5.0000 18.0000 0.0000
					CHANNELS 3 Zrotation Xrotation Yrotation
					JOINT LeftUpperArm
					{
						OFFSET -15.0000 0.0000 0.0000
						CHANNELS 3 Zrotation Xrotation Yrotation
						JOINT LeftLowerArm
						{
							OFFSET -28.0000 0.0000 0.0000
							CHANNELS 3 Zrotation Xrotation Yrotation
							JOINT LeftHand
							{
								OFFSET -25.0000 0.0000 0.0000
								CHANNELS 3 Zrotation Xrotation Yrotation
								End Site
								{
									OFFSET 0.0000 5.0000 0.0000
								}
							}
						}
					}
				}
			}
		}
	}
}
MOTION
Frames: 8
Frame Time: 0.033333
-27.155131 174.418485 98.479819 -172.180833 86.066143 -2.435618 -0.282077 23.047830 3.332189 0.157072 14.148030 0.165995 4.482709 9.352492 3.159555 10.444419 -19.917522 7.806607 -1.395763 -27.128791 -5.304553 -2.371424 12.476354 0.243274 -13.896573 23.967323 7.260524 5.806790 -6.861386 -3.892745 2.429180 4.521701 0.653594 -3.898817 -0.932620 2.603123 1.551457 2.355156 -1.964681 -2.066907 -17.931103 -1.590796 -0.116001 2.810464 0.152362 2.969463 1.829136 7.905231 59.700300 4.182163 17.804534 6.009061 -1.527402 21.707659 5.897952 -2.775678 3.924371 -6.677612 -3.278047 -1.139722 -62.989698 36.899950 -10.265919 -2.726206 1.445994 -16.782423 -7.425985 -18.578046 2.476232
-28.344953 178.922272 99.002808 -135.703886 86.125952 -39.196586 -4.022459 17.077949 4.313087 1.078177 24.242821 0.370308 6.666884 21.031094 1.001882 10.409716 -24.130262 9.620892 -4.124197 -26.180164 -5.198333 -2.775366 14.178298 1.065973 -12.220545 22.120831 5.732382 6.057371 -5.093368 -3.385032 0.961719 4.146125 0.889087 -2.722771 -1.214552 2.120950 0.975010 2.559718 -1.749838 -1.830814 -18.108324 -2.017858 -0.089362 2.948940 0.097222 2.246620 1.064469 7.780142 61.806067 4.573329 16.466070 6.141568 -1.330175 20.389212 6.023830 -4.032835 3.586898 -5.032872 -3.446498 -1.382232 -63.693491 37.538437 -10.294500 -3.118174 1.620838 -17.215852 -7.024945 -17.127760 2.995712
-29.314053 183.116043 99.567294 -110.729091 85.059943 -64.305258 -7.126596 9.353355 5.254782 1.781191 35.256528 -0.061213 11.763507 32.503177 -2.430744 7.048939 -17.283000 6.587445 -6.612423 -25.052072 -5.317975 -3.234829 15.925245 1.862354 -9.666733 17.295908 3.914493 5.181249 -4.213386 -3.418271 -0.529925 3.823052 0.995078 -1.330777 -1.505847 1.564326 0.463636 2.941886 -1.542672 -1.880641 -18.832292 -2.168007 -0.107231 2.733733 -0.053612 2.090189 0.257429 7.917278 62.716676 5.073891 15.513326 6.205892 -1.050246 19.737890 6.514554 -4.734947 3.459701 -4.220813 -3.740904 -1.710632 -63.200069 38.180398 -10.935532 -3.082441 1.839282 -18.074744 -7.201635 -15.745350 3.294989
-30.089200 187.012398 100.005889 -99.964088 83.809123 -74.857305 -8.943801 1.483804 5.524392 2.053471 45.229679 -0.348231 16.472638 39.343623 -5.517259 4.418769 -7.544133 1.994822 -8.609865 -23.281563 -5.544780 -3.485776 16.710944 2.539322 -7.736419 13.153865 2.350479 4.192111 -3.454900 -3.355088 -1.874980 3.653920 0.886994 0.067711 -1.718999 1.037669 0.080633 3.335915 -1.307238 -2.336031 -19.631105 -2.508457 0.122284 2.005342 0.198347 2.213949 -0.300656 7.873351 62.861640 5.513468 15.085281 6.168699 -0.646141 19.589565 7.062244 -5.207679 3.674565 -4.064921 -4.038089 -2.188121 -61.294858 38.862686 -12.574270 -2.931375 2.039125 -19.090870 -7.253038 -14.668899 3.471392
-30.753198 190.711093 100.470388 -96.706926 82.838373 -77.264619 -10.094409 -5.817350 4.232373 3.118622 54.132866 -0.296712 15.430412 36.313991 -5.250181 4.117134 -6.727987 1.717822 -10.197960 -20.652892 -6.416519 -3.577031 16.594837 3.128080 -6.248366 9.886690 1.063580 3.133607 -2.879482 -3.194131 -2.926570 3.663021 0.576722 1.299245 -1.744514 0.544015 -0.236686 3.475546 -1.054573 -2.740919 -19.859228 -3.086381 0.302406 1.081314 0.723330 2.609182 -0.525983 7.470653 62.690026 5.986866 14.806286 6.153339 -0.275652 19.457022 7.257311 -5.337207 4.027185 -4.061165 -4.048648 -2.702314 -58.278061 39.438669 -15.341893 -2.792363 2.158387 -19.838294 -7.164862 -13.759792 3.707786
-31.363621 194.259894 100.937605 -97.308609 81.987710 -75.366340 -11.444638 -12.148739 1.508934 4.125904 59.515597 -0.414569 13.165875 31.870606 -5.425542 3.859155 -7.373453 2.204143 -11.550277 -17.045660 -7.617410 -3.450530 15.440951 3.601953 -4.878436 7.316254 -0.040684 1.965441 -2.418561 -3.057795 -3.791257 3.823212 0.115898 2.361167 -1.648368 0.109805 -0.470985 3.459633 -0.810121 -3.011550 -19.656118 -3.764730 0.450994 0.511736 1.443258 2.827886 -0.656066 6.921413 62.664678 6.508796 14.360266 6.121838 0.043395 19.194697 7.125654 -5.176128 4.167353 -3.812441 -3.934985 -3.181206 -55.050048 39.656471 -18.849052 -2.711785 2.084950 -20.039947 -7.128479 -12.640609 3.961337
-31.934088 197.713053 101.382184 -99.527913 81.092070 -71.642672 -13.409010 -17.295874 -2.305883 4.330234 61.071055 -0.227518 11.266627 28.476424 -6.594989 3.475154 -8.048596 2.694529 -12.759322 -12.537874 -8.933196 -3.043441 13.170822 3.927126 -3.562355 5.412095 -0.993896 0.620793 -2.172265 -2.977249 -4.562150 4.073616 -0.400374 3.282087 -1.423618 -0.295811 -0.625683 3.281448 -0.573286 -3.123682 -19.114359 -4.441051 0.520637 0.185146 2.124398 2.928476 -0.646861 6.273034 62.739225 7.011168 13.694272 6.107634 0.243134 18.903139 6.814003 -4.658336 3.977774 -3.350851 -3.717439 -3.612087 -52.091601 39.242628 -22.537872 -2.684796 1.881050 -20.017541 -7.104942 -11.246453 4.090344
-32.453337 201.198816 101.754451 -102.328778 80.262124 -67.318858 -15.597257 -21.160849 -6.393566 3.766687 59.265615 0.376707 10.120666 25.817476 -7.552057 3.046742 -8.589411 3.117042 -13.561861 -7.511948 -9.993249 -2.489031 10.270573 4.143626 -2.370705 3.921785 -2.057567 -0.845971 -2.132223 -2.898821 -5.214792 4.387968 -0.864279 4.087176 -1.133763 -0.696709 -0.719645 2.979250 -0.328504 -3.118061 -18.376658 -5.076057 0.551461 -0.093303 2.797826 3.068910 -0.444785 5.514440 62.742980 7.432432 12.822644 6.135852 0.360422 18.738943 6.457992 -4.017840 3.636505 -2.725809 -3.449125 -4.096540 -49.731008 38.231505 -25.952443 -2.720545 1.609013 -20.068196 -7.065325 -9.904259 4.006268
